<?xml version="1.0" encoding="UTF-8"?>
<svg version="1.1" xmlns="http://www.w3.org/2000/svg" width="128" height="128">
<path d="M0 0 C0.7062854 -0.0065712 1.4125708 -0.0131424 2.14025879 -0.01991272 C4.47290162 -0.03958733 6.80548011 -0.05129764 9.13818359 -0.0612793 C9.93844341 -0.06535482 10.73870323 -0.06943035 11.56321335 -0.07362938 C15.80223072 -0.09446915 20.04121597 -0.10877771 24.28027344 -0.11816406 C28.63786428 -0.12920081 32.9949406 -0.16357467 37.35235023 -0.20333576 C40.72062057 -0.22960721 44.08877049 -0.23786536 47.45713425 -0.24144554 C49.06215245 -0.24628741 50.66716615 -0.25783216 52.27208328 -0.27648354 C64.28950752 -0.40741932 74.10118476 0.63503034 83.15771484 9.27075195 C92.54370999 19.47201171 92.21815976 31.642867 92.17724609 44.8996582 C92.17859771 46.29487678 92.18054235 47.6900949 92.18304443 49.08531189 C92.1859714 51.99067731 92.1817765 54.89591868 92.17236328 57.80126953 C92.16095943 61.49825681 92.16754953 65.19495386 92.17950821 68.89193058 C92.18678383 71.76694368 92.1844131 74.64188955 92.17925262 77.51690483 C92.17729755 79.53406338 92.18329834 81.55122471 92.18951416 83.56837463 C92.13169706 94.9869278 91.36285294 105.05804059 83.91162109 114.17700195 C72.36069716 124.30071124 61.23840108 125.33175566 46.45458984 125.3449707 C45.15644852 125.3482991 43.85830719 125.3516275 42.52082825 125.35505676 C39.77990894 125.36102139 37.03902104 125.36289944 34.2980957 125.36230469 C30.81175799 125.36220326 27.32562481 125.37584726 23.83933544 125.3930769 C20.48191776 125.40696971 17.12453581 125.4062882 13.76708984 125.4074707 C11.90880806 125.41824898 11.90880806 125.41824898 10.01298523 125.429245 C-3.15421798 125.39485265 -12.67776183 123.43485637 -22.90087891 114.80200195 C-28.51794882 108.06151805 -31.22843864 102.57258725 -31.28125 93.74316406 C-31.28942749 92.98825684 -31.29760498 92.23334961 -31.30603027 91.45556641 C-31.33085529 88.95516747 -31.34739752 86.45482542 -31.36181641 83.9543457 C-31.36714008 83.098006 -31.37246376 82.2416663 -31.37794876 81.35937691 C-31.40467448 76.82211325 -31.42404668 72.28487698 -31.43847656 67.74755859 C-31.45178619 64.00446982 -31.47958405 60.26193003 -31.52050781 56.51904297 C-31.57002505 51.98972884 -31.59462149 47.46091057 -31.60170364 42.93133736 C-31.60838645 41.21186473 -31.62353047 39.49240186 -31.64759445 37.77308464 C-31.80197316 26.07043988 -30.87620416 17.3301147 -22.77587891 8.30200195 C-16.03346145 2.0601133 -9.01824676 0.06959897 0 0 Z " fill="#EFEFEF" transform="translate(34.08837890625,0.822998046875)"/>
<path d="M0 0 C0.7062854 -0.0065712 1.4125708 -0.0131424 2.14025879 -0.01991272 C4.47290162 -0.03958733 6.80548011 -0.05129764 9.13818359 -0.0612793 C9.93844341 -0.06535482 10.73870323 -0.06943035 11.56321335 -0.07362938 C15.80223072 -0.09446915 20.04121597 -0.10877771 24.28027344 -0.11816406 C28.63786428 -0.12920081 32.9949406 -0.16357467 37.35235023 -0.20333576 C40.72062057 -0.22960721 44.08877049 -0.23786536 47.45713425 -0.24144554 C49.06215245 -0.24628741 50.66716615 -0.25783216 52.27208328 -0.27648354 C64.28950752 -0.40741932 74.10118476 0.63503034 83.15771484 9.27075195 C92.54370999 19.47201171 92.21815976 31.642867 92.17724609 44.8996582 C92.17859771 46.29487678 92.18054235 47.6900949 92.18304443 49.08531189 C92.1859714 51.99067731 92.1817765 54.89591868 92.17236328 57.80126953 C92.16095943 61.49825681 92.16754953 65.19495386 92.17950821 68.89193058 C92.18678383 71.76694368 92.1844131 74.64188955 92.17925262 77.51690483 C92.17729755 79.53406338 92.18329834 81.55122471 92.18951416 83.56837463 C92.13169706 94.9869278 91.36285294 105.05804059 83.91162109 114.17700195 C72.36069716 124.30071124 61.23840108 125.33175566 46.45458984 125.3449707 C45.15644852 125.3482991 43.85830719 125.3516275 42.52082825 125.35505676 C39.77990894 125.36102139 37.03902104 125.36289944 34.2980957 125.36230469 C30.81175799 125.36220326 27.32562481 125.37584726 23.83933544 125.3930769 C20.48191776 125.40696971 17.12453581 125.4062882 13.76708984 125.4074707 C11.90880806 125.41824898 11.90880806 125.41824898 10.01298523 125.429245 C-3.15421798 125.39485265 -12.67776183 123.43485637 -22.90087891 114.80200195 C-28.51794882 108.06151805 -31.22843864 102.57258725 -31.28125 93.74316406 C-31.28942749 92.98825684 -31.29760498 92.23334961 -31.30603027 91.45556641 C-31.33085529 88.95516747 -31.34739752 86.45482542 -31.36181641 83.9543457 C-31.36714008 83.098006 -31.37246376 82.2416663 -31.37794876 81.35937691 C-31.40467448 76.82211325 -31.42404668 72.28487698 -31.43847656 67.74755859 C-31.45178619 64.00446982 -31.47958405 60.26193003 -31.52050781 56.51904297 C-31.57002505 51.98972884 -31.59462149 47.46091057 -31.60170364 42.93133736 C-31.60838645 41.21186473 -31.62353047 39.49240186 -31.64759445 37.77308464 C-31.80197316 26.07043988 -30.87620416 17.3301147 -22.77587891 8.30200195 C-16.03346145 2.0601133 -9.01824676 0.06959897 0 0 Z M-21.62353516 14.91137695 C-25.93357184 20.59107543 -27.33026336 26.05254051 -27.41064453 33.18530273 C-27.42057434 33.85940689 -27.43050415 34.53351105 -27.44073486 35.2280426 C-27.46977399 37.44284263 -27.48354994 39.65735586 -27.49462891 41.87231445 C-27.50028366 42.63514614 -27.50593842 43.39797783 -27.51176453 44.18392563 C-27.54167338 48.22427485 -27.56017711 52.26448275 -27.56884766 56.30493164 C-27.57978108 60.44738375 -27.62777673 64.58850905 -27.68479156 68.73054695 C-27.72232737 71.94279563 -27.73247044 75.15473437 -27.73551941 78.36718369 C-27.74151445 79.89243667 -27.75737223 81.41768808 -27.78388977 82.94272232 C-27.95683788 93.65732498 -26.52389255 102.46336708 -19.53552246 111.09500122 C-10.9839695 119.37115598 0.62708021 119.77470868 11.85302734 119.6730957 C13.27066624 119.67325115 14.68830555 119.67474773 16.10594177 119.67750549 C19.05853359 119.67888021 22.01063416 119.66648779 24.96313477 119.64355469 C28.7208067 119.6151461 32.47766596 119.61792677 36.23539829 119.6306448 C39.15678174 119.63764568 42.07798194 119.6297633 44.99934196 119.61738777 C46.38382194 119.61291777 47.76832189 119.61249686 49.15280342 119.61645317 C59.81732485 119.6326732 69.51995494 118.97633386 78.08740234 112.05981445 C84.11305466 105.8406187 87.02006238 99.01067638 87.08862305 90.46166992 C87.09519424 89.78318497 87.10176544 89.10470001 87.10853577 88.40565491 C87.12824375 86.16016522 87.13992864 83.91474249 87.14990234 81.66918945 C87.15397787 80.8998621 87.1580534 80.13053474 87.16225243 79.33789444 C87.18310724 75.26213094 87.19740882 71.186401 87.20678711 67.1105957 C87.21782196 62.91765576 87.25218909 58.72525084 87.29195881 54.53249931 C87.31821696 51.29465813 87.32648728 48.05694233 87.33006859 44.81900406 C87.33491456 43.27456188 87.34647134 41.73012455 87.36510658 40.1857872 C87.49096864 29.05956614 86.49764469 20.22277841 78.75146484 11.74731445 C71.98841862 5.97503296 64.31890029 4.07003021 55.62768555 4.01586914 C54.37901199 4.0062616 53.13033844 3.99665405 51.84382629 3.98675537 C50.48752019 3.98190551 49.13121194 3.97762714 47.77490234 3.97387695 C47.08588522 3.97104958 46.3968681 3.9682222 45.68697166 3.96530914 C42.037974 3.95034998 38.38901551 3.94110089 34.73999023 3.93676758 C30.99568828 3.93129923 27.25175295 3.90729685 23.5075655 3.87879562 C20.60681662 3.86004438 17.70615368 3.85495698 14.80534935 3.8534317 C13.42642407 3.85043083 12.04749936 3.84249055 10.66863441 3.82924652 C-2.01088503 3.71618777 -12.83855731 4.98636381 -21.62353516 14.91137695 Z " fill="#151515" transform="translate(34.08837890625,0.822998046875)"/>
<path d="M0 0 C-0.50104961 4.4311575 -1.93576777 6.44373112 -5 9.625 C-9.12032927 14.01914862 -12.94406326 18.55920258 -16.7109375 23.2578125 C-19.77024778 26.92272003 -23.08185934 30.32483482 -26.4453125 33.7109375 C-28.30473377 35.92695129 -28.30473377 35.92695129 -27.7421875 38.7890625 C-27.49726562 39.51867188 -27.25234375 40.24828125 -27 41 C-27.99 41.33 -28.98 41.66 -30 42 C-29.66677734 42.88260498 -29.33355469 43.76520996 -28.99023438 44.67456055 C-27.75369067 47.96156178 -26.52455789 51.25114036 -25.30029297 54.54272461 C-24.76969522 55.96472011 -24.23619681 57.38563687 -23.69970703 58.80541992 C-22.92749699 60.85055877 -22.16592319 62.89939526 -21.40625 64.94921875 C-20.94541016 66.17987061 -20.48457031 67.41052246 -20.00976562 68.6784668 C-19.09299454 71.69410282 -18.77245662 73.88420715 -19 77 C-20.82519531 76.91186523 -20.82519531 76.91186523 -23 76 C-24.46386719 73.16430664 -24.46386719 73.16430664 -25.796875 69.41015625 C-26.15462006 68.42057167 -26.15462006 68.42057167 -26.51959229 67.41099548 C-27.27818352 65.29988267 -28.01380775 63.18151388 -28.75 61.0625 C-29.260319 59.63816959 -29.77202154 58.21433407 -30.28515625 56.79101562 C-34 46.39134234 -34 46.39134234 -34 44 C-35.98 44.495 -35.98 44.495 -38 45 C-38.33 43.68 -38.66 42.36 -39 41 C-40.16917969 40.93941406 -41.33835937 40.87882812 -42.54296875 40.81640625 C-44.09115614 40.73195966 -45.63933268 40.64731375 -47.1875 40.5625 C-48.34088867 40.50352539 -48.34088867 40.50352539 -49.51757812 40.44335938 C-53.43251075 40.22492966 -57.17120688 39.91307892 -61 39 C-61 37.68 -61 36.36 -61 35 C-53.6094524 34.85284308 -46.35575165 35.29223008 -39 36 C-39 33.36 -39 30.72 -39 28 C-37.68 28.33 -36.36 28.66 -35 29 C-34.67 30.98 -34.34 32.96 -34 35 C-34.66 35 -35.32 35 -36 35 C-36 35.66 -36 36.32 -36 37 C-32.93457725 36.36852403 -32.93457725 36.36852403 -32.12890625 34.28515625 C-31.75636719 33.53105469 -31.38382813 32.77695312 -31 32 C-29.34530957 30.09639888 -27.67558323 28.26087339 -25.9375 26.4375 C-22.25191364 22.49994915 -18.70562797 18.50957466 -15.3125 14.3125 C-12.45280428 10.7802367 -9.58417914 7.2621806 -6.625 3.8125 C-5.99851563 3.07644531 -5.37203125 2.34039063 -4.7265625 1.58203125 C-3 0 -3 0 0 0 Z " fill="#968C87" transform="translate(98,24)"/>
<path d="M0 0 C1.46540774 0.02996299 2.93085451 0.05806831 4.39633179 0.08441162 C8.22070456 0.15807521 12.04402688 0.25667055 15.86767578 0.36077881 C19.78255324 0.46285196 23.69790514 0.54090948 27.61328125 0.62109375 C35.27148989 0.78141703 42.92874788 0.96812796 50.5859375 1.171875 C50.5859375 1.501875 50.5859375 1.831875 50.5859375 2.171875 C49.82918228 2.17774124 49.07242706 2.18360748 48.29273987 2.18965149 C41.1285645 2.24777888 33.96472899 2.31996842 26.8008585 2.40758991 C23.11864513 2.45214095 19.43653851 2.49142955 15.75415039 2.51831055 C12.1942484 2.5444974 8.63476063 2.58500529 5.07511711 2.63506126 C3.06966955 2.65963756 1.06406121 2.66973478 -0.94151306 2.67951965 C-12.10734707 2.85767303 -20.71145886 4.93941994 -29.4140625 12.171875 C-34.82921195 18.02181747 -36.65303485 24.19450122 -36.70117188 32.1394043 C-36.70800491 32.80845795 -36.71483795 33.4775116 -36.72187805 34.1668396 C-36.73539261 35.6088854 -36.74449283 37.05097811 -36.74958801 38.49307823 C-36.75791979 40.77548567 -36.77846016 43.05750115 -36.80212402 45.33979797 C-36.8583563 51.00305891 -36.89378898 56.6664146 -36.92974854 62.32983398 C-36.96098235 67.12677799 -37.00014534 71.92352824 -37.05000305 76.72031593 C-37.07006909 78.96881825 -37.07838777 81.21717086 -37.08630371 83.46574402 C-37.09927312 84.84134471 -37.11279299 86.21694035 -37.12695312 87.5925293 C-37.13424438 88.79354782 -37.14153564 89.99456635 -37.14904785 91.23197937 C-37.4140625 94.171875 -37.4140625 94.171875 -39.4140625 97.171875 C-40.4724849 93.70585662 -40.54701273 90.50755828 -40.55932617 86.89379883 C-40.56570602 85.6218013 -40.57208588 84.34980377 -40.57865906 83.03926086 C-40.58018842 81.65247638 -40.58130201 80.26569139 -40.58203125 78.87890625 C-40.5852473 77.44886746 -40.58861163 76.018829 -40.59211731 74.58879089 C-40.59810193 71.5903548 -40.59995803 68.5919475 -40.59936523 65.59350586 C-40.59926396 61.77181062 -40.61288306 57.95030263 -40.63013744 54.12865162 C-40.64132045 51.1730415 -40.64328247 48.21747564 -40.64275551 45.26184654 C-40.64392742 43.85419765 -40.64830437 42.44654731 -40.65608788 41.03891945 C-40.75392513 21.50819619 -40.75392513 21.50819619 -35.0390625 13.796875 C-34.45382813 12.98476562 -33.86859375 12.17265625 -33.265625 11.3359375 C-31.45301859 9.21740596 -29.76102068 7.66890594 -27.4140625 6.171875 C-26.7540625 6.171875 -26.0940625 6.171875 -25.4140625 6.171875 C-25.4140625 5.511875 -25.4140625 4.851875 -25.4140625 4.171875 C-17.05112068 -0.2441702 -9.20507739 -0.28406558 0 0 Z " fill="#1B1B1B" transform="translate(44.4140625,1.828125)"/>
<path d="M0 0 C0.99 0 1.98 0 3 0 C3 0.66 3 1.32 3 2 C3.8353125 2.3403125 3.8353125 2.3403125 4.6875 2.6875 C10.75405519 6.13067997 14.2263769 11.7700158 17 18 C17.98310354 21.93795118 18.12664691 25.63486964 18.12939453 29.6862793 C18.13114685 30.33728607 18.13289917 30.98829285 18.13470459 31.6590271 C18.13908386 33.79745192 18.13620004 35.93579318 18.1328125 38.07421875 C18.13348642 39.56443803 18.13445719 41.0546572 18.13571167 42.5448761 C18.13718311 45.66086885 18.13505097 48.77683286 18.13037109 51.89282227 C18.12465924 55.89112209 18.12796549 59.889355 18.13394356 63.8876524 C18.13755144 66.96135465 18.13640979 70.03504094 18.13381577 73.10874367 C18.1331479 74.58357565 18.13397005 76.05840907 18.13629532 77.53323936 C18.13882716 79.58950031 18.13497442 81.64565155 18.12939453 83.7019043 C18.12859894 84.87262985 18.12780334 86.04335541 18.12698364 87.2495575 C18 90 18 90 17 92 C17.66 92.33 18.32 92.66 19 93 C18.34 93 17.68 93 17 93 C16.731875 93.61875 16.46375 94.2375 16.1875 94.875 C15 97 15 97 12 99 C12.32400787 97.99286957 12.64801575 96.98573914 12.98184204 95.9480896 C14.04715362 92.2013313 14.26608508 88.73761598 14.29052734 84.83056641 C14.29724457 84.15149734 14.30396179 83.47242828 14.31088257 82.77278137 C14.32973339 80.54896539 14.33377997 78.32545319 14.3359375 76.1015625 C14.34237385 74.54128907 14.34910283 72.98101682 14.35610962 71.42074585 C14.36804969 68.15774744 14.37179377 64.89485464 14.37060547 61.63183594 C14.37040234 57.47035849 14.39771273 53.30956435 14.43214989 49.14824867 C14.4544901 45.92755073 14.45844086 42.70701548 14.45738602 39.48624802 C14.45973095 37.95298278 14.46849142 36.41971229 14.48405075 34.8865242 C14.59203561 23.14850747 13.26545851 14.66865161 5 6 C4.071875 5.2575 3.14375 4.515 2.1875 3.75 C1.465625 3.1725 0.74375 2.595 0 2 C0 1.34 0 0.68 0 0 Z " fill="#1B1B1B" transform="translate(106,6)"/>
<path d="M0 0 C2.7294586 0.14143832 5.45848123 0.28799529 8.1875 0.4375 C8.95642578 0.47681641 9.72535156 0.51613281 10.51757812 0.55664062 C14.43251075 0.77507034 18.17120688 1.08692108 22 2 C22.33 2.99 22.66 3.98 23 5 C24.32 5 25.64 5 27 5 C28.20282097 7.931458 29.38454273 10.87097242 30.5625 13.8125 C31.07586914 15.06256836 31.07586914 15.06256836 31.59960938 16.33789062 C31.91865234 17.14033203 32.23769531 17.94277344 32.56640625 18.76953125 C33.01415405 19.87711792 33.01415405 19.87711792 33.47094727 21.00708008 C34 23 34 23 33 26 C32.505 24.02 32.505 24.02 32 22 C31.34 22 30.68 22 30 22 C29.84144531 21.43410156 29.68289062 20.86820313 29.51953125 20.28515625 C28.81418295 18.06779058 28.10846848 16.04806871 27 14 C24.42919865 12.86559222 24.42919865 12.86559222 22 13 C22 11.68 22 10.36 22 9 C20.99839844 9.01160156 19.99679688 9.02320312 18.96484375 9.03515625 C17.62239772 9.04454398 16.27994964 9.05364312 14.9375 9.0625 C12.97103516 9.07990234 12.97103516 9.07990234 10.96484375 9.09765625 C7.20395786 9.00502359 3.68736405 8.74686737 0 8 C-1.43088528 5.13822943 -0.59991697 3.06624227 0 0 Z " fill="#E2E2E2" transform="translate(37,63)"/>
<path d="M0 0 C7.93572846 0.96190648 14.15747554 5.89577562 19 12 C24.85257934 21.83091877 24.15148014 32.58557942 24.1328125 43.67578125 C24.13348717 45.09205644 24.13445855 46.50833152 24.13571167 47.92460632 C24.13717856 50.87723912 24.13506508 53.82984147 24.13037109 56.7824707 C24.12464813 60.56647543 24.12797532 64.35040961 24.13394356 68.13441181 C24.13755416 71.05202264 24.13640873 73.96961668 24.13381577 76.88722801 C24.13314924 78.28308305 24.13396535 79.67893961 24.13629532 81.07479286 C24.13883283 83.0203206 24.13427998 84.9658537 24.12939453 86.91137695 C24.12859894 88.0175386 24.12780334 89.12370026 24.12698364 90.26338196 C24 93 24 93 23 96 C22.34 96 21.68 96 21 96 C21.00666183 95.15554825 21.01332367 94.3110965 21.02018738 93.4410553 C21.08048999 85.45302342 21.12607131 77.46506885 21.15543652 69.476861 C21.17104138 65.37078644 21.19218398 61.26490119 21.22631836 57.15893555 C21.25909794 53.19075619 21.27689189 49.22275804 21.28463173 45.25445366 C21.29014207 43.74630319 21.30090185 42.23816177 21.31719017 40.73008919 C21.43583176 29.28226749 20.51607158 19.20718768 13 10 C11.0762461 8.47097862 9.10917904 7.27531756 7 6 C7 5.34 7 4.68 7 4 C6.34 4.66 5.68 5.32 5 6 C4.01 6 3.02 6 2 6 C2 4.35 2 2.7 2 1 C1.34 0.67 0.68 0.34 0 0 Z " fill="#0B0B0B" transform="translate(102,2)"/>
<path d="M0 0 C-0.50104961 4.4311575 -1.93576777 6.44373112 -5 9.625 C-9.12032927 14.01914862 -12.94406326 18.55920258 -16.7109375 23.2578125 C-19.77024778 26.92272003 -23.08185934 30.32483482 -26.4453125 33.7109375 C-28.30473377 35.92695129 -28.30473377 35.92695129 -27.7421875 38.7890625 C-27.49726562 39.51867188 -27.25234375 40.24828125 -27 41 C-27.99 41 -28.98 41 -30 41 C-31.06258251 38.12386024 -31.83564964 36.01173731 -32 33 C-30.27552232 30.35750093 -28.94549376 28.76685085 -26.6875 26.6875 C-25.55858014 25.56382179 -24.43230515 24.43748057 -23.30859375 23.30859375 C-22.7451123 22.75413574 -22.18163086 22.19967773 -21.60107422 21.62841797 C-19.31322324 19.30149421 -17.28431918 16.79915567 -15.25 14.25 C-12.41271138 10.73692082 -9.56575806 7.23981985 -6.625 3.8125 C-5.99851562 3.07644531 -5.37203125 2.34039063 -4.7265625 1.58203125 C-3 0 -3 0 0 0 Z " fill="#3E3E3E" transform="translate(98,24)"/>
<path d="M0 0 C1.64623119 0.00560429 3.29246743 0.00987045 4.93870544 0.01286316 C9.24433522 0.02424646 13.54965513 0.05365646 17.85516357 0.0869751 C22.25951955 0.1178175 26.66392623 0.1313986 31.06835938 0.14648438 C39.69024541 0.17853332 48.31188089 0.22964946 56.93359375 0.29296875 C56.93359375 0.62296875 56.93359375 0.95296875 56.93359375 1.29296875 C56.04711655 1.29883499 55.16063934 1.30470123 54.24729919 1.31074524 C45.87581748 1.36875045 37.50460034 1.44087201 29.13337612 1.52868366 C24.83006618 1.57333066 20.52684967 1.61259911 16.22338867 1.6394043 C12.06701056 1.66549411 7.91099308 1.70593617 3.75483894 1.75615501 C2.17254194 1.77278547 0.59018261 1.78432349 -0.99218941 1.79058266 C-3.21595819 1.80026578 -5.43881229 1.82837301 -7.66235352 1.8605957 C-8.9258815 1.87169876 -10.18940948 1.88280182 -11.4912262 1.89424133 C-15.6164708 2.35431554 -18.31118974 3.57768787 -22.06640625 5.29296875 C-23.05640625 5.29296875 -24.04640625 5.29296875 -25.06640625 5.29296875 C-25.06640625 5.95296875 -25.06640625 6.61296875 -25.06640625 7.29296875 C-25.93265625 7.80859375 -26.79890625 8.32421875 -27.69140625 8.85546875 C-33.69802946 12.65586779 -37.33754107 19.55039455 -39.06640625 26.29296875 C-39.72640625 25.96296875 -40.38640625 25.63296875 -41.06640625 25.29296875 C-40.40024864 16.41086725 -34.99839187 10.85588023 -28.73828125 5.0546875 C-19.86365939 -0.79685411 -10.16938716 -0.10219192 0 0 Z " fill="#070707" transform="translate(44.06640625,0.70703125)"/>
<path d="M0 0 C0.33 0 0.66 0 1 0 C1.4823523 5.36712641 1.4823523 5.36712641 -0.65234375 8.16796875 C-1.40644531 8.83441406 -2.16054687 9.50085938 -2.9375 10.1875 C-7.34124655 14.29397637 -11.0920379 18.65099559 -14.85546875 23.34375 C-18.38694573 27.71789271 -22.02304576 32.02304576 -26 36 C-26.66 34.68 -27.32 33.36 -28 32 C-27.38253906 31.33355469 -26.76507813 30.66710937 -26.12890625 29.98046875 C-20.97230333 24.36864061 -16.03918146 18.65597939 -11.24609375 12.7265625 C-7.64800257 8.35879268 -3.94492532 4.0593986 0 0 Z " fill="#D4D4D4" transform="translate(97,28)"/>
<path d="M0 0 C0.99 0 1.98 0 3 0 C4.57702665 4.17706163 6.14323905 8.35797226 7.69970703 12.54272461 C8.23030478 13.96472011 8.76380319 15.38563687 9.30029297 16.80541992 C10.07250301 18.85055877 10.83407681 20.89939526 11.59375 22.94921875 C12.28500977 24.79519653 12.28500977 24.79519653 12.99023438 26.6784668 C13.90700546 29.69410282 14.22754338 31.88420715 14 35 C12.17700195 34.9074707 12.17700195 34.9074707 10 34 C8.52026367 31.19604492 8.52026367 31.19604492 7.16796875 27.48046875 C6.80666618 26.49799919 6.80666618 26.49799919 6.43806458 25.49568176 C5.93220852 24.10887463 5.43424412 22.71916727 4.94360352 21.3269043 C4.1915508 19.19896178 3.41148847 17.08294857 2.62695312 14.96679688 C-1.47308169 3.63375241 -1.47308169 3.63375241 0 0 Z " fill="#EA6444" transform="translate(65,66)"/>
<path d="M0 0 C7.71589817 -0.1567564 15.31516461 0.32546899 23 1 C23 2.32 23 3.64 23 5 C20.10410348 5.02706445 17.20846205 5.04687029 14.3125 5.0625 C13.08756836 5.07506836 13.08756836 5.07506836 11.83789062 5.08789062 C7.75500916 5.10442051 3.98348293 5.03035098 0 4 C0 2.68 0 1.36 0 0 Z " fill="#454545" transform="translate(37,59)"/>
<path d="M0 0 C0 3.95782286 -1.24729927 4.66724162 -3.9375 7.5 C-8.10924818 11.99265188 -12.02065087 16.62097092 -15.8515625 21.40625 C-17.80657526 23.76648358 -19.86548008 25.92949379 -22 28.125 C-25.55814605 32.0858 -26.08457653 35.78041969 -26 41 C-28.18975773 37.71536341 -28.99806563 34.79303725 -30 31 C-29.10861328 30.87431641 -29.10861328 30.87431641 -28.19921875 30.74609375 C-25.33814032 29.77546146 -24.55376626 28.50887161 -22.8125 26.0625 C-19.51136063 21.60914282 -15.94637675 17.52209706 -12.2109375 13.4296875 C-9.59643188 10.55650288 -7.04791447 7.6303165 -4.5078125 4.69140625 C-3.05861014 3.0657466 -1.555849 1.52324139 0 0 Z " fill="#E6E6E6" transform="translate(97,34)"/>
<path d="M0 0 C0.99 0.495 0.99 0.495 2 1 C1.99555878 1.90566711 1.99111755 2.81133423 1.98654175 3.7444458 C1.94647144 12.27855211 1.91601883 20.81262683 1.89637566 29.34680557 C1.88593743 33.73433698 1.87177751 38.12179067 1.84912109 42.50927734 C1.82739411 46.74326085 1.81543166 50.97716958 1.81024551 55.21120453 C1.8065495 56.82674079 1.79933215 58.44227296 1.78853989 60.0577774 C1.77402682 62.32018383 1.77202197 64.58228109 1.77294922 66.84472656 C1.768508 68.13268127 1.76406677 69.42063599 1.75949097 70.74761963 C1.98424622 73.78696318 2.38816744 75.46112546 4 78 C2.515 78.495 2.515 78.495 1 79 C-0.17108064 75.48675808 -0.13229358 72.33634942 -0.11352539 68.68286133 C-0.11367142 67.94115189 -0.11381744 67.19944244 -0.1139679 66.43525696 C-0.11327134 63.98415195 -0.10549097 61.53312298 -0.09765625 59.08203125 C-0.09579116 57.38238059 -0.09436768 55.68272939 -0.09336853 53.983078 C-0.08955055 49.50980139 -0.07972638 45.03655724 -0.06866455 40.56329346 C-0.05843499 35.99858031 -0.0538676 31.43386193 -0.04882812 26.86914062 C-0.03810349 17.91274615 -0.02103567 8.95637578 0 0 Z " fill="#111111" transform="translate(3,26)"/>
<path d="M0 0 C1.65 0 3.3 0 5 0 C6.20282097 2.931458 7.38454273 5.87097242 8.5625 8.8125 C8.90474609 9.64587891 9.24699219 10.47925781 9.59960938 11.33789062 C9.91865234 12.14033203 10.23769531 12.94277344 10.56640625 13.76953125 C10.86490479 14.50792236 11.16340332 15.24631348 11.47094727 16.00708008 C12 18 12 18 11 21 C10.67 19.68 10.34 18.36 10 17 C9.34 17 8.68 17 8 17 C7.76216797 16.15115234 7.76216797 16.15115234 7.51953125 15.28515625 C6.81418295 13.06779058 6.10846848 11.04806871 5 9 C2.42919865 7.86559222 2.42919865 7.86559222 0 8 C0 5.36 0 2.72 0 0 Z " fill="#DBD4D2" transform="translate(59,68)"/>
<path d="M0 0 C2.67997002 2.67997002 3.11522872 5.41153114 4.12109375 9.00390625 C4.55615234 9.99197266 4.55615234 9.99197266 5 11 C5.99 11.33 6.98 11.66 8 12 C7.67 12.99 7.34 13.98 7 15 C5.68 15 4.36 15 3 15 C0.74315457 9.63999211 -0.36263859 5.8022175 0 0 Z " fill="#DBCDCA" transform="translate(71,89)"/>
<path d="M0 0 C0.66 0 1.32 0 2 0 C1.66830805 6.30214697 -1.67323988 10.85216936 -5 16 C-5.578125 14.109375 -5.578125 14.109375 -6 12 C-5.03126968 10.64377755 -4.02323436 9.31558703 -3 8 C-1.8714838 5.36848241 -0.94688302 2.70538005 0 0 Z " fill="#0C0C0C" transform="translate(123,99)"/>
<path d="M0 0 C1.32 0.33 2.64 0.66 4 1 C4.33 2.98 4.66 4.96 5 7 C3.68 7 2.36 7 1 7 C0.67 4.69 0.34 2.38 0 0 Z " fill="#EB6747" transform="translate(59,52)"/>
<path d="M0 0 C1.32 0 2.64 0 4 0 C4 3.3 4 6.6 4 10 C1.81024227 6.71536341 1.00193437 3.79303725 0 0 Z " fill="#DDD5D4" transform="translate(67,65)"/>
<path d="M0 0 C1.65 0 3.3 0 5 0 C5 0.66 5 1.32 5 2 C5.99 2.33 6.98 2.66 8 3 C5.36 3 2.72 3 0 3 C0 2.01 0 1.02 0 0 Z " fill="#D5D5D5" transform="translate(37,63)"/>
<path d="M0 0 C2.475 0.99 2.475 0.99 5 2 C4.67 2.99 4.34 3.98 4 5 C2.68 5 1.36 5 0 5 C0 3.35 0 1.7 0 0 Z " fill="#D8D6D6" transform="translate(74,99)"/>
</svg>
